<?xml version="1.0" encoding="UTF-8" standalone="no"?>
<svg
xmlns="http://www.w3.org/2000/svg"
version="1.0"
width="1600" height="1600"
id="24-cell_t0_F4.svg">
<!-- Graph: v=24 e=96 -->
<!-- Projection: Point overlap:1 ,  visible v=24 e=96 -->
<g style="stroke:#000000;stroke-width:6.0;stroke-opacity:0.50;">
<line x1="424.369" y1="800.000" x2="1125.306" y2="987.815"/>
<line x1="424.369" y1="800.000" x2="1125.306" y2="612.185"/>
<line x1="424.369" y1="800.000" x2="612.185" y2="1500.937"/>
<line x1="424.369" y1="800.000" x2="612.185" y2="1125.306"/>
<line x1="424.369" y1="800.000" x2="612.185" y2="474.694"/>
<line x1="424.369" y1="800.000" x2="612.185" y2="99.063"/>
<line x1="424.369" y1="800.000" x2="99.063" y2="987.815"/>
<line x1="424.369" y1="800.000" x2="99.063" y2="612.185"/>
<line x1="1175.631" y1="800.000" x2="1500.937" y2="987.815"/>
<line x1="1175.631" y1="800.000" x2="1500.937" y2="612.185"/>
<line x1="1175.631" y1="800.000" x2="987.815" y2="1500.937"/>
<line x1="1175.631" y1="800.000" x2="987.815" y2="1125.306"/>
<line x1="1175.631" y1="800.000" x2="987.815" y2="474.694"/>
<line x1="1175.631" y1="800.000" x2="987.815" y2="99.063"/>
<line x1="1175.631" y1="800.000" x2="474.694" y2="987.815"/>
<line x1="1175.631" y1="800.000" x2="474.694" y2="612.185"/>
<line x1="800.000" y1="1175.631" x2="1125.306" y2="987.815"/>
<line x1="800.000" y1="1175.631" x2="1500.937" y2="987.815"/>
<line x1="800.000" y1="1175.631" x2="612.185" y2="1500.937"/>
<line x1="800.000" y1="1175.631" x2="987.815" y2="1500.937"/>
<line x1="800.000" y1="1175.631" x2="612.185" y2="474.694"/>
<line x1="800.000" y1="1175.631" x2="987.815" y2="474.694"/>
<line x1="800.000" y1="1175.631" x2="99.063" y2="987.815"/>
<line x1="800.000" y1="1175.631" x2="474.694" y2="987.815"/>
<line x1="800.000" y1="424.369" x2="1125.306" y2="612.185"/>
<line x1="800.000" y1="424.369" x2="1500.937" y2="612.185"/>
<line x1="800.000" y1="424.369" x2="612.185" y2="1125.306"/>
<line x1="800.000" y1="424.369" x2="987.815" y2="1125.306"/>
<line x1="800.000" y1="424.369" x2="612.185" y2="99.063"/>
<line x1="800.000" y1="424.369" x2="987.815" y2="99.063"/>
<line x1="800.000" y1="424.369" x2="99.063" y2="612.185"/>
<line x1="800.000" y1="424.369" x2="474.694" y2="612.185"/>
<line x1="1313.121" y1="286.879" x2="1125.306" y2="987.815"/>
<line x1="1313.121" y1="286.879" x2="1500.937" y2="987.815"/>
<line x1="1313.121" y1="286.879" x2="1125.306" y2="612.185"/>
<line x1="1313.121" y1="286.879" x2="1500.937" y2="612.185"/>
<line x1="1313.121" y1="286.879" x2="612.185" y2="474.694"/>
<line x1="1313.121" y1="286.879" x2="987.815" y2="474.694"/>
<line x1="1313.121" y1="286.879" x2="612.185" y2="99.063"/>
<line x1="1313.121" y1="286.879" x2="987.815" y2="99.063"/>
<line x1="286.879" y1="1313.121" x2="612.185" y2="1500.937"/>
<line x1="286.879" y1="1313.121" x2="987.815" y2="1500.937"/>
<line x1="286.879" y1="1313.121" x2="612.185" y2="1125.306"/>
<line x1="286.879" y1="1313.121" x2="987.815" y2="1125.306"/>
<line x1="286.879" y1="1313.121" x2="99.063" y2="987.815"/>
<line x1="286.879" y1="1313.121" x2="474.694" y2="987.815"/>
<line x1="286.879" y1="1313.121" x2="99.063" y2="612.185"/>
<line x1="286.879" y1="1313.121" x2="474.694" y2="612.185"/>
<line x1="1313.121" y1="1313.121" x2="1125.306" y2="987.815"/>
<line x1="1313.121" y1="1313.121" x2="1500.937" y2="987.815"/>
<line x1="1313.121" y1="1313.121" x2="1125.306" y2="612.185"/>
<line x1="1313.121" y1="1313.121" x2="1500.937" y2="612.185"/>
<line x1="1313.121" y1="1313.121" x2="612.185" y2="1500.937"/>
<line x1="1313.121" y1="1313.121" x2="987.815" y2="1500.937"/>
<line x1="1313.121" y1="1313.121" x2="612.185" y2="1125.306"/>
<line x1="1313.121" y1="1313.121" x2="987.815" y2="1125.306"/>
<line x1="286.879" y1="286.879" x2="612.185" y2="474.694"/>
<line x1="286.879" y1="286.879" x2="987.815" y2="474.694"/>
<line x1="286.879" y1="286.879" x2="612.185" y2="99.063"/>
<line x1="286.879" y1="286.879" x2="987.815" y2="99.063"/>
<line x1="286.879" y1="286.879" x2="99.063" y2="987.815"/>
<line x1="286.879" y1="286.879" x2="474.694" y2="987.815"/>
<line x1="286.879" y1="286.879" x2="99.063" y2="612.185"/>
<line x1="286.879" y1="286.879" x2="474.694" y2="612.185"/>
<line x1="1125.306" y1="987.815" x2="1500.937" y2="987.815"/>
<line x1="1125.306" y1="987.815" x2="1125.306" y2="612.185"/>
<line x1="1125.306" y1="987.815" x2="612.185" y2="1500.937"/>
<line x1="1125.306" y1="987.815" x2="612.185" y2="474.694"/>
<line x1="1500.937" y1="987.815" x2="1500.937" y2="612.185"/>
<line x1="1500.937" y1="987.815" x2="987.815" y2="1500.937"/>
<line x1="1500.937" y1="987.815" x2="987.815" y2="474.694"/>
<line x1="1125.306" y1="612.185" x2="1500.937" y2="612.185"/>
<line x1="1125.306" y1="612.185" x2="612.185" y2="1125.306"/>
<line x1="1125.306" y1="612.185" x2="612.185" y2="99.063"/>
<line x1="1500.937" y1="612.185" x2="987.815" y2="1125.306"/>
<line x1="1500.937" y1="612.185" x2="987.815" y2="99.063"/>
<line x1="612.185" y1="1500.937" x2="987.815" y2="1500.937"/>
<line x1="612.185" y1="1500.937" x2="612.185" y2="1125.306"/>
<line x1="612.185" y1="1500.937" x2="99.063" y2="987.815"/>
<line x1="987.815" y1="1500.937" x2="987.815" y2="1125.306"/>
<line x1="987.815" y1="1500.937" x2="474.694" y2="987.815"/>
<line x1="612.185" y1="1125.306" x2="987.815" y2="1125.306"/>
<line x1="612.185" y1="1125.306" x2="99.063" y2="612.185"/>
<line x1="987.815" y1="1125.306" x2="474.694" y2="612.185"/>
<line x1="612.185" y1="474.694" x2="987.815" y2="474.694"/>
<line x1="612.185" y1="474.694" x2="612.185" y2="99.063"/>
<line x1="612.185" y1="474.694" x2="99.063" y2="987.815"/>
<line x1="987.815" y1="474.694" x2="987.815" y2="99.063"/>
<line x1="987.815" y1="474.694" x2="474.694" y2="987.815"/>
<line x1="612.185" y1="99.063" x2="987.815" y2="99.063"/>
<line x1="612.185" y1="99.063" x2="99.063" y2="612.185"/>
<line x1="987.815" y1="99.063" x2="474.694" y2="612.185"/>
<line x1="99.063" y1="987.815" x2="474.694" y2="987.815"/>
<line x1="99.063" y1="987.815" x2="99.063" y2="612.185"/>
<line x1="474.694" y1="987.815" x2="474.694" y2="612.185"/>
<line x1="99.063" y1="612.185" x2="474.694" y2="612.185"/>
</g>
<g style="stroke:#000000;stroke-width:3.0;fill:#ff0000">
<circle cx="424.369" cy="800.000" r="36.1"/>
<circle cx="1175.631" cy="800.000" r="36.1"/>
<circle cx="800.000" cy="1175.631" r="36.1"/>
<circle cx="800.000" cy="424.369" r="36.1"/>
<circle cx="1313.121" cy="286.879" r="36.1"/>
<circle cx="286.879" cy="1313.121" r="36.1"/>
<circle cx="1313.121" cy="1313.121" r="36.1"/>
<circle cx="286.879" cy="286.879" r="36.1"/>
<circle cx="1125.306" cy="987.815" r="36.1"/>
<circle cx="1500.937" cy="987.815" r="36.1"/>
<circle cx="1125.306" cy="612.185" r="36.1"/>
<circle cx="1500.937" cy="612.185" r="36.1"/>
<circle cx="612.185" cy="1500.937" r="36.1"/>
<circle cx="987.815" cy="1500.937" r="36.1"/>
<circle cx="612.185" cy="1125.306" r="36.1"/>
<circle cx="987.815" cy="1125.306" r="36.1"/>
<circle cx="612.185" cy="474.694" r="36.1"/>
<circle cx="987.815" cy="474.694" r="36.1"/>
<circle cx="612.185" cy="99.063" r="36.1"/>
<circle cx="987.815" cy="99.063" r="36.1"/>
<circle cx="99.063" cy="987.815" r="36.1"/>
<circle cx="474.694" cy="987.815" r="36.1"/>
<circle cx="99.063" cy="612.185" r="36.1"/>
<circle cx="474.694" cy="612.185" r="36.1"/>
</g>
</svg>
